<svg width="40" height="40" viewBox="0 0 40 40" fill="none" xmlns="http://www.w3.org/2000/svg">
<path d="M33.3334 33.3334H6.66671C5.78265 33.3334 4.93481 32.9822 4.30968 32.3571C3.68456 31.732 3.33337 30.8841 3.33337 30.0001V9.85508C3.37076 8.9964 3.73839 8.18535 4.3595 7.59125C4.98062 6.99715 5.80721 6.66594 6.66671 6.66675H33.3334C34.2174 6.66675 35.0653 7.01794 35.6904 7.64306C36.3155 8.26818 36.6667 9.11603 36.6667 10.0001V30.0001C36.6667 30.8841 36.3155 31.732 35.6904 32.3571C35.0653 32.9822 34.2174 33.3334 33.3334 33.3334ZM6.66671 13.1134V30.0001H33.3334V13.1134L20 22.0001L6.66671 13.1134ZM8.00004 10.0001L20 18.0001L32 10.0001H8.00004Z" fill="black"/>
</svg>
